<svg width="114" height="29" viewBox="0 0 114 29" fill="none" xmlns="http://www.w3.org/2000/svg">
  <path
    d="M83.2072 18.9139V20.998H81.0023V19.0407C81.0023 18.0442 80.4942 17.7649 78.4109 17.7649H74.2516V20.998H72.0443V12.2536H79.325C81.8021 12.2536 83.4405 13.0618 83.4405 14.9023C83.4405 16.3683 82.2615 16.9784 80.7179 17.1904C82.4001 17.2974 83.2072 17.6738 83.2072 18.9139ZM79.325 16.3643C80.5696 16.3643 81.2332 15.8472 81.2332 15.0092C81.2332 14.2109 80.5672 13.7968 79.325 13.7968H74.254V16.3643H79.325ZM98.1089 13.7532H93.5533V20.998H91.346V13.7532H86.7904V12.2536H98.1113V13.7532H98.1089ZM114 12.2536V20.998H111.793V17.3647H103.914V21H101.707V12.2536H103.914V15.8631H111.793V12.2536H114ZM63.7037 12.8122C63.4654 12.3368 62.8844 12 62.2038 12C61.5255 12 60.9446 12.3348 60.7063 12.8083L56 20.9802H58.3677L59.4228 19.0863H64.9945L66.052 20.9802H68.4416L63.7037 12.8122ZM60.2517 17.5965L62.2014 14.094L64.1583 17.5965H60.2517Z"
    fill="white"/>
  <path
    d="M24.249 3.68074L39.2266 28.9999H35.6605L20.1282 3.68074C18.6225 1.34297 17.2574 1.22363 15.2149 3.56186C18.3452 -0.757077 20.8018 -1.64197 24.249 3.68074Z"
    fill="white"/>
  <path
    d="M24.249 3.68074L39.2266 28.9999H35.6605L20.1282 3.68074C18.6225 1.34297 17.2574 1.22363 15.2149 3.56186C18.3452 -0.757077 20.8018 -1.64197 24.249 3.68074Z"
    fill="url(#paint0_linear_2444_52588)"/>
  <path
    d="M24.249 3.68074L39.2266 28.9999H35.6605L20.1282 3.68074C18.6225 1.34297 17.2574 1.22363 15.2149 3.56186C18.3452 -0.757077 20.8018 -1.64197 24.249 3.68074Z"
    fill="url(#paint1_linear_2444_52588)"/>
  <path
    d="M14.9776 3.68074L0 28.9999H3.56608L19.0984 3.68074C20.8378 1.41955 22.1277 1.22363 24.1701 3.56186C21.5154 -0.757058 18.4248 -1.64198 14.9776 3.68074Z"
    fill="white"/>
  <path
    d="M14.9776 3.68074L0 28.9999H3.56608L19.0984 3.68074C20.8378 1.41955 22.1277 1.22363 24.1701 3.56186C21.5154 -0.757058 18.4248 -1.64198 14.9776 3.68074Z"
    fill="url(#paint2_linear_2444_52588)"/>
  <path
    d="M23.0751 14.5387L31.6196 28.999H28.1588L19.2977 14.5387C18.3054 13.2473 17.5695 13.1354 16.4043 14.4708C17.9188 12.0041 21.1084 11.4988 23.0751 14.5387Z"
    fill="white"/>
  <path
    d="M23.0751 14.5387L31.6196 28.999H28.1588L19.2977 14.5387C18.3054 13.2473 17.5695 13.1354 16.4043 14.4708C17.9188 12.0041 21.1084 11.4988 23.0751 14.5387Z"
    fill="url(#paint3_linear_2444_52588)"/>
  <path
    d="M23.0751 14.5387L31.6196 28.999H28.1588L19.2977 14.5387C18.3054 13.2473 17.5695 13.1354 16.4043 14.4708C17.9188 12.0041 21.1084 11.4988 23.0751 14.5387Z"
    fill="url(#paint4_linear_2444_52588)"/>
  <path
    d="M16.0734 14.5391L7.52881 28.9995H10.9897L19.8507 14.5391C20.843 13.2477 21.8563 13.1223 23.0215 14.4577C21.5158 11.9615 18.04 11.4992 16.0734 14.5391Z"
    fill="white"/>
  <path
    d="M16.0734 14.5391L7.52881 28.9995H10.9897L19.8507 14.5391C20.843 13.2477 21.8563 13.1223 23.0215 14.4577C21.5158 11.9615 18.04 11.4992 16.0734 14.5391Z"
    fill="url(#paint5_linear_2444_52588)"/>
  <defs>
    <linearGradient id="paint0_linear_2444_52588" x1="35.3786" y1="26.3656" x2="17.4752" y2="9.94232"
                    gradientUnits="userSpaceOnUse">
      <stop stop-color="#FF8506"/>
      <stop offset="0.5805" stop-color="#FD3947"/>
      <stop offset="1" stop-color="#FB0078"/>
    </linearGradient>
    <linearGradient id="paint1_linear_2444_52588" x1="34.5809" y1="25.7054" x2="22.1198" y2="2.73038"
                    gradientUnits="userSpaceOnUse">
      <stop stop-color="#FB126A" stop-opacity="0"/>
      <stop offset="0.1389" stop-color="#F41169" stop-opacity="0.1389"/>
      <stop offset="0.3365" stop-color="#E20F67" stop-opacity="0.3365"/>
      <stop offset="0.5694" stop-color="#C30A64" stop-opacity="0.5694"/>
      <stop offset="0.827" stop-color="#99045F" stop-opacity="0.827"/>
      <stop offset="1" stop-color="#78005B"/>
    </linearGradient>
    <linearGradient id="paint2_linear_2444_52588" x1="3.87334" y1="26.3656" x2="21.7865" y2="9.8249"
                    gradientUnits="userSpaceOnUse">
      <stop stop-color="#FF8506"/>
      <stop offset="0.5805" stop-color="#FD3947"/>
      <stop offset="1" stop-color="#FB0078"/>
    </linearGradient>
    <linearGradient id="paint3_linear_2444_52588" x1="29.1813" y1="27.4945" x2="18.9198" y2="17.0505"
                    gradientUnits="userSpaceOnUse">
      <stop stop-color="#FF8506"/>
      <stop offset="0.5805" stop-color="#FD3947"/>
      <stop offset="1" stop-color="#FB0078"/>
    </linearGradient>
    <linearGradient id="paint4_linear_2444_52588" x1="28.6759" y1="27.1174" x2="21.9757" y2="13.4113"
                    gradientUnits="userSpaceOnUse">
      <stop stop-color="#FB126A" stop-opacity="0"/>
      <stop offset="0.1389" stop-color="#F41169" stop-opacity="0.1389"/>
      <stop offset="0.3365" stop-color="#E20F67" stop-opacity="0.3365"/>
      <stop offset="0.5694" stop-color="#C30A64" stop-opacity="0.5694"/>
      <stop offset="0.827" stop-color="#99045F" stop-opacity="0.827"/>
      <stop offset="1" stop-color="#78005B"/>
    </linearGradient>
    <linearGradient id="paint5_linear_2444_52588" x1="10.0116" y1="27.4934" x2="20.2791" y2="16.8638"
                    gradientUnits="userSpaceOnUse">
      <stop stop-color="#FF8506"/>
      <stop offset="0.5805" stop-color="#FD3947"/>
      <stop offset="1" stop-color="#FB0078"/>
    </linearGradient>
  </defs>
</svg>
